<svg xmlns="http://www.w3.org/2000/svg" viewBox="0 0 64 64" role="img" aria-label="AI Academy for Beginners">
  <defs>
    <linearGradient id="g" x1="32" y1="58" x2="32" y2="6" gradientUnits="userSpaceOnUse">
      <stop offset="0%" stop-color="#06b6d4"/>
      <stop offset="55%" stop-color="#3b82f6"/>
      <stop offset="100%" stop-color="#7c3aed"/>
    </linearGradient>
    <filter id="glow" x="-20%" y="-20%" width="140%" height="140%">
      <feGaussianBlur stdDeviation="1.2" result="b"/>
      <feMerge><feMergeNode in="b"/><feMergeNode in="SourceGraphic"/></feMerge>
    </filter>
  </defs>
  <rect width="64" height="64" rx="14" fill="#050810"/>
  <g fill="none" stroke="url(#g)" stroke-width="2.2" stroke-linecap="round" filter="url(#glow)">
    <polygon points="32,10 46.5,18.5 46.5,35.5 32,44 17.5,35.5 17.5,18.5"/>
    <circle cx="32" cy="27" r="7.5" stroke-width="2.6"/>
    <line x1="32" y1="19.5" x2="32" y2="10"/>
    <line x1="38.5" y1="22" x2="46.5" y2="18.5"/>
    <line x1="38.5" y1="32" x2="46.5" y2="35.5"/>
    <line x1="32" y1="34.5" x2="32" y2="44"/>
    <line x1="25.5" y1="32" x2="17.5" y2="35.5"/>
    <line x1="25.5" y1="22" x2="17.5" y2="18.5"/>
  </g>
  <circle cx="32" cy="27" r="2.2" fill="#06b6d4"/>
  <circle cx="32" cy="10" r="2" fill="#7c3aed"/>
  <circle cx="46.5" cy="18.5" r="2" fill="#6366f1"/>
  <circle cx="46.5" cy="35.5" r="2" fill="#06b6d4"/>
  <circle cx="32" cy="44" r="2" fill="#06b6d4"/>
  <circle cx="17.5" cy="35.5" r="2" fill="#6366f1"/>
  <circle cx="17.5" cy="18.5" r="2" fill="#7c3aed"/>
</svg>
